Coordinates
version=1
nRows=9
nColumns=36
inDegrees=yes

Units are S.I. units (second, meters, Newtons, ...)
If the header above contains a line with 'inDegrees', this indicates whether rotational values are in degrees (yes) or radians (no).

endheader
time	pelvis_tilt	pelvis_list	pelvis_rotation	pelvis_tx	pelvis_ty	pelvis_tz	hip_flexion_r	hip_adduction_r	hip_rotation_r	knee_angle_r	knee_angle_r_beta	ankle_angle_r	subtalar_angle_r	mtp_angle_r	hip_flexion_l	hip_adduction_l	hip_rotation_l	knee_angle_l	knee_angle_l_beta	ankle_angle_l	subtalar_angle_l	mtp_angle_l	lumbar_extension	lumbar_bending	lumbar_rotation	arm_flex_r	arm_add_r	arm_rot_r	elbow_flex_r	pro_sup_r	arm_flex_l	arm_add_l	arm_rot_l	elbow_flex_l	pro_sup_l
      1.03750000	    -14.10695721	      2.23488635	     -0.46142246	     -0.40939523	      1.29298359	     -0.06337638	     10.54661330	     -5.66874452	     -0.86975608	     40.63124769	      0.70914905	    -28.14585450	    -22.70836799	     -7.49999987	     22.37245625	     -0.60843942	      0.49655794	     46.97956574	      0.81994810	    -11.84118900	    -18.35277606	     -7.49999987	     -6.10329305	      2.63435544	      5.40726944	     23.31937339	    -34.56287037	      5.60906053	     92.41383725	     84.37803791	     39.15248638	    -40.04254284	     -2.49758408	     91.83357603	     64.14359451
      1.04166670	    -13.65117266	      2.39605640	     -0.30655590	     -0.40853178	      1.29494930	     -0.06285933	     10.94394552	     -5.22816459	      0.51068691	     42.07173875	      0.73429036	    -27.70191376	    -25.46845134	     -7.49999987	     22.68796362	     -0.53327948	      0.27856030	     47.42417886	      0.82770807	    -13.15115178	    -19.53995347	     -7.49999987	     -7.08435519	      2.15368710	      5.17712800	     23.53091016	    -34.14191237	      5.36971271	     90.75326199	     84.45737390	     39.39353137	    -40.41448701	     -2.43609287	     91.64415057	     63.65685034
      1.04583330	    -13.67391984	      2.34048690	     -0.69049236	     -0.40728840	      1.28679618	     -0.06148320	     12.77421268	     -4.73736987	      1.80706591	     44.91945848	      0.78399245	    -28.86912779	    -27.61921766	     -7.49999987	     24.55412522	     -0.83196939	      0.66717858	     49.02835498	      0.85570622	    -16.29204024	    -21.02488320	     -7.49999987	     -7.85217530	      2.11385581	      4.59958576	     24.72058131	    -33.81992535	      6.15524222	     88.97247727	     84.34886510	     37.81244137	    -41.60103635	     -4.44925779	     93.13216355	     60.09036391
      1.05000000	    -13.73315729	      2.12653518	     -0.91495008	     -0.40090458	      1.29127305	     -0.05801746	     14.51656651	     -4.15562011	      2.50714084	     47.08318207	      0.82175655	    -30.46281619	    -28.58275627	     -7.49999987	     26.13822216	     -1.10798918	      1.90920203	     49.66899198	      0.86688745	    -17.20744426	    -18.65625344	     -7.49999987	     -8.64981441	      1.88916585	      5.16935129	     23.86849479	    -33.85973919	      4.99199424	     88.27381126	     81.84554942	     37.44247776	    -41.79451603	     -4.74918917	     94.39331688	     59.98948929
      1.05416670	    -13.91041124	      2.10399461	     -1.25749972	     -0.40047218	      1.28988597	     -0.05845321	     16.18687529	     -4.30577683	      2.14770013	     48.60811056	      0.84837157	    -29.08769211	    -29.33254060	     -7.49999987	     27.57637231	     -1.13498891	      2.44737653	     50.36791955	      0.87908603	    -16.86861852	    -16.61229168	     -7.49999987	     -8.91362346	      1.63548386	      5.70610978	     23.77818650	    -33.86811593	      4.48479389	     86.78751485	     80.04747384	     37.42487153	    -41.70866047	     -4.99055909	     95.02855293	     59.95694065
      1.05833330	    -13.70817325	      1.92359841	     -1.52478829	     -0.39425433	      1.29708599	     -0.05465766	     16.52960619	     -4.38839632	      1.55493070	     48.58462701	      0.84796171	    -28.62979343	    -29.75623636	     -7.49999987	     27.33764798	     -1.54421433	      2.55432933	     48.94884531	      0.85431852	    -15.78201425	    -14.05778113	     -7.49999987	     -9.53712212	      1.58972152	      5.32884786	     24.70793727	    -32.67381678	      4.62571771	     84.47652098	     83.16707748	     36.14473240	    -42.25114768	     -6.66083983	     95.60953094	     58.80600194
      1.06250000	    -13.65314856	      1.79358284	     -1.30489238	     -0.38334402	      1.29178460	     -0.05598334	     16.27554729	     -4.38295051	      0.95726120	     48.24191552	      0.84198026	    -26.81111501	    -29.97417088	     -7.49999987	     26.68477197	     -1.76551218	      2.54774505	     47.71248869	      0.83274002	    -14.20148948	    -13.58808358	     -7.49999987	     -9.43663092	      1.51281327	      5.10826901	     24.58439704	    -32.25822828	      4.20001664	     82.84502432	     82.85845880	     36.34978907	    -42.37133355	     -6.81074948	     94.77426186	     58.73650262
      1.06666670	    -13.59103364	      1.64818353	     -1.13463858	     -0.38313391	      1.28621686	     -0.05575766	     16.87165644	     -4.16349787	      1.04273944	     49.21598128	      0.85898092	    -22.94478323	    -30.45208059	     -7.49999987	     26.71244146	     -2.15297509	      2.24862868	     47.02781155	      0.82079015	    -13.47248760	    -14.98622440	     -7.49999987	     -9.51116147	      1.48916917	      4.86603136	     24.86254685	    -31.98054068	      4.47006370	     81.61825111	     80.31043343	     37.12341531	    -42.64949537	     -6.91610938	     93.57305177	     58.82652827
      1.07083330	    -13.22572718	      1.62610522	     -0.19516419	     -0.37229244	      1.29173510	     -0.05770761	     16.31993503	     -4.36342881	      0.30821158	     49.55133821	      0.86483400	    -23.84190243	    -32.00500467	     -7.49999987	     25.78169889	     -2.06202772	      2.00786413	     45.28066768	      0.79029674	    -12.95384936	    -16.14112264	     -7.49999987	     -9.49754528	      1.51862706	      3.94266850	     24.59519986	    -31.71969844	      4.38369870	     79.96664717	     80.84117092	     37.53389503	    -42.58864345	     -6.60612011	     92.23217866	     58.57335829
